<?xml version="1.0" encoding="UTF-8"?>
<svg width="760px" height="290px" viewBox="0 0 760 290" version="1.1" xmlns="http://www.w3.org/2000/svg" xmlns:xlink="http://www.w3.org/1999/xlink">
    <!-- Generator: Sketch 43.2 (39069) - http://www.bohemiancoding.com/sketch -->
    <title>Logo Copy 2</title>
    <desc>Created with Sketch.</desc>
    <defs>
        <polygon id="path-1" points="722.018064 211.845525 722.018064 0.1708275 0.2208 0.1708275 0.2208 211.845525"></polygon>
    </defs>
    <g id="Page-1" stroke="none" stroke-width="1" fill="none" fill-rule="evenodd">
        <g id="Group" transform="translate(0.000000, -10.000000)">
            <g id="Logo-Copy-2">
                <g id="Group-17" transform="translate(0.000000, 17.350000)">
                    <mask id="mask-2" fill="white">
                        <use xlink:href="#path-1"></use>
                    </mask>
                    <g id="Clip-11"></g>
                    <path d="M358.085114,208.504128 L358.085114,0.1708275 L413.122721,0.1708275 L456.410647,76.5200025 C468.7776,98.4683275 481.151731,124.434653 490.425151,147.918428 L491.351058,147.918428 C488.257525,120.409477 487.331619,92.2834775 487.331619,60.7565275 L487.331619,0.1708275 L530.619544,0.1708275 L530.619544,208.504128 L481.151731,208.504128 L436.622086,128.136952 C424.255133,105.887277 410.64646,78.9953775 400.447133,54.5716775 L399.521226,54.8802025 C400.755768,82.3963275 401.373039,111.756427 401.373039,145.758753 L401.373039,208.504128 L358.085114,208.504128 Z" id="Fill-10" fill="#000000" mask="url(#mask-2)"></path>
                    <path d="M606.380232,208.504128 L606.380232,123.193378 L540.518849,0.1708275 L594.321914,0.1708275 L615.653652,50.2451525 C622.149353,65.3915775 626.477428,76.5200025 631.738587,90.1238025 L632.355858,90.1238025 C636.992568,77.1370525 641.937914,65.0830525 648.117802,50.2451525 L669.148082,0.1708275 L722.018064,0.1708275 L653.378961,121.650753 L653.378961,208.504128 L606.380232,208.504128 Z" id="Fill-12" fill="#000000" mask="url(#mask-2)"></path>
                </g>
                <text id="LOCKS" font-family="MyriadPro-Black, Myriad Pro" font-size="72" font-weight="700" fill="#000000">
                    <tspan x="440" y="299">LOCKS</tspan>
                </text>
                <text id="™" font-family="HelveticaNeue-BoldItalic, Helvetica Neue" font-size="35.8878505" font-style="italic" font-weight="bold" fill="#000000">
                    <tspan x="721.920449" y="35.1910018">™</tspan>
                </text>
                <g id="Group-9" transform="translate(0.000000, 17.350000)" fill="#000000">
                    <path d="M0.215775701,0.0101075 L0.215775701,208.501258 L192.667963,208.501258 L192.667963,172.389483 L98.0604112,0.0101075 L0.215775701,0.0101075 Z M40.6039626,40.3838325 L75.7166355,40.3838325 L142.338841,168.134707 L40.6039626,168.134707 L40.6039626,40.3838325 Z" id="Fill-6"></path>
                    <polygon id="Fill-8" points="208.434931 0.171545 208.434931 208.504845 341.392239 208.504845 341.392239 169.86747 255.742295 169.86747 255.742295 120.410195 332.427454 120.410195 332.427454 82.08852 255.742295 82.08852 255.742295 38.816095 337.064164 38.816095 337.064164 0.171545"></polygon>
                </g>
            </g>
        </g>
    </g>
</svg>