<?xml version="1.0" encoding="UTF-8"?>
<svg width="802px" height="699px" viewBox="0 0 802 699" version="1.1" xmlns="http://www.w3.org/2000/svg" xmlns:xlink="http://www.w3.org/1999/xlink">
    <!-- Generator: Sketch 43.2 (39069) - http://www.bohemiancoding.com/sketch -->
    <title>Elevate_Logo_Black</title>
    <desc>Created with Sketch.</desc>
    <defs></defs>
    <g id="Page-1" stroke="none" stroke-width="1" fill="none" fill-rule="evenodd">
        <g id="Elevate_Logo_Black" fill="#1A1918">
            <path d="M400.81,0.5 C446.03,-0.3 491.53,1.78 535.98,10.65 C555.3,14.72 574.43,19.92 592.87,27.04 C608.92,33.41 624.97,41.26 637.08,53.89 C647.67,64.42 655.23,78.53 655.99,93.62 C490.18,93.64 324.36,93.69 158.55,93.59 C162.43,75.42 175.25,60.58 190.17,50.19 C205.67,39.23 223.27,31.66 241.12,25.43 C292.42,7.93 346.86,1.84 400.81,0.5" id="Fill-2"></path>
            <path d="M151.42,122.71 C368,122.7 584.57,122.67 801.14,122.72 C801.1,142.68 801.27,162.65 801.06,182.61 C757.02,182.76 712.97,182.6 668.94,183.1 C667.34,183.15 665.51,182.96 664.29,184.22 C637.41,207.59 603.7,221.47 569.59,230.48 C522.11,242.73 472.87,246.19 423.99,246.6 C373.67,246.72 323.26,241.77 274.16,230.59 C255.91,226.23 237.57,221.84 220.05,215.03 C199.26,206.76 179.26,194.25 166.52,175.43 C155.92,160.08 151.32,141.21 151.42,122.71" id="Fill-3"></path>
            <path d="M0.54,179.87 C11.3,206.57 34.1,226.04 57.75,241.24 C96.53,265.62 140.32,280.75 184.45,292.17 C233.15,304.45 283.07,311.61 333.16,315.02 C384.4,318.56 435.9,318.06 487.09,313.73 C532.63,309.76 577.99,302.72 622.27,291.22 C662.82,280.53 702.94,266.56 739.15,245.08 C764.37,229.87 788.69,210.38 801.46,183.14 C801.49,198.18 796.91,213.07 788.62,225.61 C778.26,241.61 763.74,254.45 748.2,265.27 C715.4,287.8 677.94,302.47 640.04,313.94 C563.22,336.49 482.88,345.07 403.01,345.53 C327.26,345.32 251.15,337.72 177.84,318.08 C136.32,306.63 95.18,291.64 58.98,267.92 C38.79,254.32 19.51,237.51 8.91,215.14 C4.89,206.62 2.5,197.3 2.19,187.88 C1.75,187.61 0.85,187.05 0.4,186.78 C0.44,184.47 0.49,182.17 0.54,179.87" id="Fill-4"></path>
            <path d="M0.38,232.52 C0.44,230.17 0.5,227.82 0.56,225.47 C10.33,250.04 30.62,268.51 52.02,283.1 C86.98,306.45 126.75,321.49 166.95,333.08 C212.35,345.91 259.03,353.83 305.95,358.42 C356.77,363.34 407.97,364.03 458.94,361.36 C504.11,358.75 549.16,353.18 593.42,343.69 C635.62,334.54 677.31,321.98 716.25,303.13 C741.301,290.65 765.66,275.53 784.44,254.48 C791.341,246.74 797.08,238.01 801.4,228.59 C801.76,247.46 794.05,265.69 782.2,280.12 C764.21,302.2 739.75,317.86 714.62,330.67 C678.12,348.86 638.94,361.07 599.29,370.21 C552.55,380.78 504.85,386.92 457.03,389.52 C412.04,392.13 366.89,391.47 321.98,387.9 C274.5,384.03 227.23,376.72 181.14,364.58 C142.25,354.12 103.81,340.52 69.07,319.88 C50.39,308.62 32.56,295.19 19.24,277.73 C9.57,265.07 2.66,249.77 2.21,233.67 C1.75,233.38 0.84,232.81 0.38,232.52" id="Fill-5"></path>
            <path d="M0.52,271.65 C9.72,294.52 28.06,312.22 47.78,326.28 C79.64,348.68 116.14,363.47 153.11,375.11 C219.13,395.36 288.06,404.95 356.92,408.12 C404.95,410.19 453.13,408.99 500.98,404.18 C545.56,399.67 589.9,392.03 633.11,380.07 C667.72,370.31 701.86,357.97 733.26,340.27 C750.65,330.33 767.33,318.77 781.15,304.17 C789.48,295.58 796.4,285.64 801.4,274.76 C801.73,292.85 794.68,310.42 783.59,324.51 C766.81,345.89 743.82,361.38 720.03,374 C681.941,393.88 640.63,406.82 598.88,416.44 C553.57,426.66 507.37,432.72 461.02,435.43 C414.36,438.31 367.52,437.68 320.93,433.95 C274.12,430.07 227.5,422.87 182.04,410.95 C143.74,400.72 105.92,387.44 71.53,367.48 C53.28,356.78 35.93,344 22.27,327.7 C11.04,314.23 2.69,297.57 2.2,279.76 C1.75,279.48 0.85,278.92 0.39,278.64 C0.44,276.31 0.48,273.98 0.52,271.65" id="Fill-6"></path>
            <path d="M0.39,323.64 C0.43,321.33 0.49,319.02 0.55,316.71 C8.35,336.43 23.27,352.34 39.68,365.33 C69.72,388.64 105.03,404.01 140.79,416.23 C185.04,430.97 230.93,440.41 277.15,446.39 C351.83,455.88 427.59,456.68 502.48,449.12 C544.73,444.75 586.76,437.62 627.82,426.61 C660.56,417.74 692.77,406.44 723.01,390.96 C747.45,378.03 771.24,362.43 788.68,340.62 C793.75,334.22 797.99,327.21 801.4,319.8 C801.71,337.4 795.1,354.58 784.46,368.44 C768,390.05 745.05,405.65 721.36,418.38 C687.55,436.28 651.03,448.48 614.04,457.91 C539.91,476.34 463.24,483.06 386.98,482.28 C335.06,481.27 283.13,476.88 232.07,467.23 C191.42,459.57 151.19,448.87 112.94,432.99 C94.06,425.08 75.66,415.86 58.61,404.5 C44.24,394.89 30.77,383.66 20.05,370.02 C9.93,357.09 2.63,341.35 2.2,324.72 C1.75,324.45 0.84,323.91 0.39,323.64" id="Fill-7"></path>
            <path d="M491.25,523.19 C494.35,518.91 498.91,515.54 504.12,514.41 C510.85,513.44 517.03,517.98 520.76,523.21 C539.69,550.73 558.63,578.25 577.54,605.78 C577.71,580.77 577.62,555.75 577.59,530.74 C563.38,530.72 549.17,530.79 534.97,530.7 C534.81,525.33 534.87,519.96 534.88,514.59 C569.66,514.47 604.45,514.53 639.23,514.57 L639.23,530.67 C625.03,530.84 610.83,530.68 596.62,530.75 C596.57,556.06 596.63,581.37 596.6,606.68 C582.281,606.78 567.98,606.49 553.67,606.56 C547.47,598 541.6,589.21 535.26,580.76 C527.83,580.79 520.41,580.84 512.98,580.72 C516.481,575.39 520.82,570.56 523.9,564.99 C523.181,562.96 521.67,561.35 520.48,559.61 C515.52,552.67 510.55,545.74 505.71,538.73 C488.97,561.02 473.32,584.13 456.79,606.59 C448.63,606.53 440.46,606.6 432.3,606.55 C452.08,578.85 471.57,550.95 491.25,523.19" id="Fill-8"></path>
            <path d="M72.14,514.56 C103.25,514.51 134.36,514.54 165.47,514.55 C165.48,519.94 165.48,525.33 165.47,530.72 C140.71,530.76 115.96,530.72 91.21,530.74 C91.12,550.63 91.2,570.52 91.16,590.4 C115.93,590.47 140.7,590.37 165.47,590.45 C165.47,595.85 165.48,601.26 165.47,606.67 C134.36,606.7 103.26,606.69 72.16,606.68 C72.12,575.97 72.17,545.27 72.14,514.56" id="Fill-9"></path>
            <path d="M174.85,514.57 C181.28,514.51 187.72,514.5 194.15,514.57 C194.16,539.85 194.16,565.13 194.15,590.4 C218.85,590.47 243.56,590.37 268.27,590.46 L268.27,606.66 C237.16,606.74 206.05,606.68 174.94,606.68 C174.72,575.98 174.9,545.27 174.85,514.57" id="Fill-10"></path>
            <path d="M275.63,514.55 C296.17,514.51 316.7,514.54 337.23,514.53 C341.1,519.91 344.92,525.32 348.82,530.67 C330.78,530.84 312.74,530.68 294.69,530.76 C294.65,550.64 294.68,570.52 294.68,590.4 C319.51,590.48 344.34,590.35 369.17,590.47 C368.93,595.82 369.67,601.28 368.83,606.57 C337.77,606.84 306.69,606.66 275.62,606.65 C275.63,575.95 275.61,545.25 275.63,514.55" id="Fill-11"></path>
            <path d="M344.93,514.6 C353.07,514.45 361.21,514.58 369.36,514.52 C382.27,532.64 395.04,550.85 407.89,569.01 C411.18,573.47 414.05,578.24 417.74,582.41 C433.75,559.72 449.96,537.18 466.07,514.55 C474.21,514.53 482.36,514.48 490.51,514.59 C469.94,542.98 449.17,571.22 428.53,599.56 C425.64,603.37 422.14,607.8 416.99,608.19 C411.85,607.69 408.5,603.19 405.59,599.41 C385.37,571.14 365.14,542.87 344.93,514.6" id="Fill-12"></path>
            <path d="M647.79,514.54 C678.95,514.54 710.11,514.5 741.27,514.56 C741.28,519.94 741.28,525.32 741.27,530.7 C716.421,530.8 691.56,530.7 666.71,530.75 C666.66,550.64 666.69,570.52 666.7,590.41 C691.56,590.46 716.41,590.36 741.27,590.46 C741.28,595.85 741.27,601.24 741.28,606.64 C710.1,606.71 678.92,606.76 647.74,606.61 C647.83,575.92 647.74,545.23 647.79,514.54" id="Fill-13"></path>
            <path d="M98.81,551.79 C119.39,551.75 139.98,551.78 160.57,551.77 C160.65,557.21 160.64,562.65 160.59,568.09 C139.99,568.05 119.38,568.41 98.79,567.9 C98.8,562.53 98.78,557.16 98.81,551.79" id="Fill-14"></path>
            <path d="M302.42,568.07 C302.38,562.63 302.36,557.2 302.44,551.77 C323.03,551.79 343.61,551.74 364.2,551.8 C364.24,557.18 364.21,562.56 364.24,567.94 C343.64,568.35 323.02,568.1 302.42,568.07" id="Fill-15"></path>
            <path d="M674.39,568.05 C674.36,562.62 674.34,557.19 674.43,551.76 C695.07,551.79 715.7,551.75 736.34,551.78 C736.39,557.23 736.39,562.69 736.34,568.15 C715.69,568.06 695.03,568.26 674.39,568.05" id="Fill-16"></path>
            <path d="M84.98,634.93 C92.58,633.27 100.58,634.23 107.79,637.03 C107.09,639.39 106.35,641.75 105.51,644.08 C99.58,641.55 92.89,640.13 86.53,641.79 C82.22,643.01 78.57,647.4 79.57,652.04 C80.33,656.19 84.28,658.61 87.88,660.11 C93.93,662.49 100.62,663.95 105.56,668.45 C110.78,673.02 111.73,681.07 109.16,687.28 C106.8,693.07 100.96,696.75 94.99,697.91 C86.35,699.53 77.05,698.54 69.28,694.28 C70.1,691.91 70.92,689.55 71.73,687.2 C78.6,690.86 86.93,693.18 94.56,690.59 C98.62,689.31 102.05,685.47 101.73,681.04 C102.03,677.15 99.34,673.69 95.99,672.03 C89.5,668.69 81.77,667.8 76.1,662.91 C71.22,659.11 69.53,652.09 71.51,646.34 C73.36,640.35 79.05,636.27 84.98,634.93" id="Fill-17"></path>
            <path d="M286.14,635.28 C294.03,633.18 302.62,633.96 310.14,637.1 C309.49,639.43 308.78,641.75 308.05,644.08 C302.19,641.62 295.68,640.21 289.38,641.67 C285.25,642.71 281.48,646.48 282.1,651.01 C281.91,655.65 286.32,658.4 290.07,659.99 C296.09,662.39 302.76,663.82 307.78,668.2 C315.31,674.6 314.49,687.87 306.69,693.75 C299.36,699.4 289.26,699.35 280.58,697.64 C277.71,696.75 274.18,696.35 272.13,694 C272.48,691.68 273.33,689.48 273.99,687.25 C281.87,691.12 292.02,694.1 300.04,689.04 C305.4,685.76 305.68,677.05 300.55,673.43 C294.76,669.17 287.14,668.74 281.17,664.79 C276.74,662.07 273.09,657.39 273.26,651.98 C272.53,644.1 278.83,637.2 286.14,635.28" id="Fill-18"></path>
            <path d="M713.88,635.82 C722.19,632.92 731.48,633.91 739.59,637.05 C738.91,639.39 738.34,641.8 737.09,643.92 C731.92,642.04 726.48,640.44 720.91,641.28 C715.921,641.56 710.7,645.68 711.34,651.07 C711.31,655.58 715.55,658.38 719.27,659.94 C725.69,662.51 732.91,664.02 738.01,669.04 C744.62,675.85 743.45,688.26 735.85,693.87 C730.821,697.78 724.21,698.79 718.01,698.62 C712.12,698.51 706.25,697.14 701.07,694.31 C701.86,691.93 702.65,689.56 703.46,687.19 C711.61,691.53 723.1,694.45 730.84,687.83 C734.71,684.11 734.46,677.07 730.22,673.73 C724.81,669.43 717.53,668.94 711.66,665.49 C706.62,662.86 702.44,657.87 702.58,651.94 C701.97,644.68 707.22,638.12 713.88,635.82" id="Fill-19"></path>
            <path d="M165.79,635.25 C169.12,635.19 172.46,635.19 175.8,635.25 C181.27,645.12 186.84,654.94 192.15,664.9 C197.99,655.12 203.48,645.11 209.2,635.24 C212.53,635.19 215.87,635.19 219.21,635.26 C211.71,647.27 203.63,658.94 196.4,671.09 C195.89,679.87 196.29,688.72 196.24,697.53 C193.34,697.64 190.44,697.65 187.53,697.64 C187.27,688.7 188.08,679.64 187.17,670.78 C180.28,658.81 172.85,647.13 165.79,635.25" id="Fill-20"></path>
            <path d="M366.37,635.21 C383.64,635.22 400.92,635.14 418.2,635.25 L418.2,642.29 C410.95,642.35 403.71,642.29 396.47,642.33 L396.47,697.64 C393.56,697.65 390.65,697.64 387.74,697.61 C387.73,679.18 387.74,660.75 387.73,642.32 C380.63,642.31 373.52,642.31 366.42,642.32 C366.39,639.94 366.37,637.57 366.37,635.21" id="Fill-21"></path>
            <path d="M474.61,635.23 C486.97,635.18 499.33,635.2 511.69,635.21 C511.68,637.57 511.67,639.94 511.66,642.31 C502.18,642.32 492.71,642.31 483.23,642.32 C483.23,648.69 483.19,655.07 483.26,661.45 C492.26,661.43 501.27,661.38 510.27,661.47 C510.27,663.81 510.27,666.15 510.28,668.5 C501.27,668.61 492.27,668.53 483.26,668.55 C483.19,675.87 483.23,683.2 483.23,690.53 C493.221,690.54 503.21,690.52 513.2,690.54 C513.22,692.88 513.24,695.22 513.27,697.58 C500.38,697.73 487.48,697.66 474.59,697.61 C474.61,676.81 474.57,656.02 474.61,635.23" id="Fill-22"></path>
            <path d="M576.83,635.24 C580.65,635.19 584.47,635.19 588.3,635.22 C594.58,652.3 601.63,669.1 606.77,686.58 C611.74,668.93 619.69,652.32 626.26,635.25 C630.01,635.19 633.77,635.19 637.53,635.21 C638.93,656.01 640.22,676.81 641.58,697.62 C638.701,697.64 635.82,697.65 632.95,697.64 C632.041,679.46 630.79,661.3 630.24,643.11 C623.89,661.37 616.51,679.25 609.44,697.24 C607.17,697.22 604.92,697.21 602.67,697.22 C596.16,679.29 589.1,661.54 583.85,643.19 C583.18,661.37 581.88,679.51 580.58,697.65 L572.39,697.65 C573.8,676.84 575.43,656.05 576.83,635.24" id="Fill-23"></path>
        </g>
    </g>
</svg>