<?xml version="1.0" encoding="utf-8"?>
<!-- Generator: Adobe Illustrator 19.0.0, SVG Export Plug-In . SVG Version: 6.00 Build 0)  -->
<svg version="1.1" id="Layer_1" xmlns="http://www.w3.org/2000/svg" xmlns:xlink="http://www.w3.org/1999/xlink" x="0px" y="0px"
	 viewBox="0 0 432 216" style="enable-background:new 0 0 432 216;" xml:space="preserve">
<g id="XMLID_1_">
	<g id="XMLID_2_">
		<path id="XMLID_3_" d="M50.1,41.7h15.7V44h-6.6V61h-2.6V44h-6.6V41.7z"/>
		<path id="XMLID_5_" d="M81.3,41.7h2.6V61h-2.6v-9H71.2v9h-2.6V41.7h2.6v8h10.1V41.7z"/>
		<path id="XMLID_7_" d="M102.9,61H88.6V41.7h14.1V44H91.2v5.9h10.6v2.3H91.2v6.5h11.7V61z"/>
		<path id="XMLID_9_" d="M117.3,61h-2.6V41.7h9c3.2,0,6.4,1.1,6.4,5.2c0,2.9-1.5,3.9-2.7,4.6c1.1,0.5,2.2,0.9,2.3,3.6l0.2,3.5
			c0,1.1,0.2,1.5,1,1.9V61h-3.2c-0.4-1.2-0.5-4.1-0.5-4.9c0-1.6-0.3-3.5-3.5-3.5h-6.3V61z M117.3,50.5h6.1c1.9,0,3.9-0.5,3.9-3.3
			c0-3-2.2-3.2-3.5-3.2h-6.5V50.5z"/>
		<path id="XMLID_12_" d="M137.1,61h-2.6V41.7h2.6V61z"/>
		<path id="XMLID_14_" d="M153.6,47.3c-0.1-3-2.6-3.9-4.8-3.9c-1.6,0-4.4,0.5-4.4,3.4c0,1.6,1.2,2.2,2.3,2.5l5.5,1.3
			c2.5,0.6,4.4,2.1,4.4,5.2c0,4.6-4.3,5.9-7.6,5.9c-3.6,0-5-1.1-5.9-1.9c-1.6-1.5-2-3.1-2-4.9h2.5c0,3.5,2.9,4.5,5.3,4.5
			c1.9,0,5.1-0.5,5.1-3.3c0-2-0.9-2.7-4.1-3.4l-4-0.9c-1.3-0.3-4.1-1.2-4.1-4.6c0-3,2-6,6.7-6c6.8,0,7.5,4,7.6,6.2H153.6z"/>
		<path id="XMLID_16_" d="M171.9,47.3c-0.1-3-2.6-3.9-4.8-3.9c-1.6,0-4.4,0.5-4.4,3.4c0,1.6,1.2,2.2,2.3,2.5l5.5,1.3
			c2.5,0.6,4.4,2.1,4.4,5.2c0,4.6-4.3,5.9-7.6,5.9c-3.6,0-5-1.1-5.9-1.9c-1.6-1.5-2-3.1-2-4.9h2.5c0,3.5,2.9,4.5,5.3,4.5
			c1.9,0,5.1-0.5,5.1-3.3c0-2-0.9-2.7-4.1-3.4l-4-0.9c-1.3-0.3-4.1-1.2-4.1-4.6c0-3,2-6,6.7-6c6.8,0,7.5,4,7.6,6.2H171.9z"/>
		<path id="XMLID_18_" d="M193,61h-14.3V41.7h14.1V44h-11.5v5.9H192v2.3h-10.6v6.5H193V61z"/>
		<path id="XMLID_20_" d="M199.7,61h-2.6V41.7h9c3.2,0,6.4,1.1,6.4,5.2c0,2.9-1.5,3.9-2.7,4.6c1.1,0.5,2.2,0.9,2.3,3.6l0.2,3.5
			c0,1.1,0.2,1.5,1,1.9V61h-3.2c-0.4-1.2-0.5-4.1-0.5-4.9c0-1.6-0.3-3.5-3.5-3.5h-6.3V61z M199.7,50.5h6.1c1.9,0,3.9-0.5,3.9-3.3
			c0-3-2.2-3.2-3.5-3.2h-6.5V50.5z"/>
		<path id="XMLID_23_" d="M237.9,47.5c-0.7-3.4-3.6-4-5.4-4c-3.5,0-6.3,2.6-6.3,7.7c0,4.6,1.6,8.1,6.4,8.1c1.7,0,4.6-0.8,5.5-5.3
			h2.5c-1.1,7.3-7,7.6-8.5,7.6c-4.4,0-8.7-2.9-8.7-10.3c0-6,3.4-10.1,9-10.1c5,0,7.6,3.1,8,6.3H237.9z"/>
		<path id="XMLID_25_" d="M252.5,61.6c-7.2,0-9.4-6-9.4-10.2s2.2-10.2,9.4-10.2c7.2,0,9.4,6,9.4,10.2S259.7,61.6,252.5,61.6z
			 M252.5,43.5c-4.2,0-6.7,3.3-6.7,7.9c0,4.6,2.5,7.9,6.7,7.9c4.2,0,6.7-3.3,6.7-7.9C259.2,46.8,256.7,43.5,252.5,43.5z"/>
		<path id="XMLID_28_" d="M281.3,61V49.6c0-0.6,0.1-3,0.1-4.8h-0.1L275.8,61h-2.6l-5.5-16.2h-0.1c0,1.8,0.1,4.2,0.1,4.8V61h-2.5
			V41.7h3.8l5.5,16.4h0.1l5.5-16.4h3.7V61H281.3z"/>
		<path id="XMLID_30_" d="M291,61h-2.6V41.7h8.7c3.6,0,5.7,2.3,5.7,5.5c0,2.7-1.5,5.7-5.7,5.7H291V61z M291,50.6h5.2
			c2.3,0,3.9-0.9,3.9-3.5c0-2.5-1.7-3.2-3.8-3.2H291V50.6z"/>
		<path id="XMLID_33_" d="M306.2,55.4l-2,5.6h-2.7l7.3-19.4h3l7,19.4h-2.9l-1.9-5.6H306.2z M313,53.1l-2.9-8.5h-0.1l-3.1,8.5H313z"
			/>
		<path id="XMLID_36_" d="M334.2,41.7h2.5V61h-2.9L324,45.4h-0.1V61h-2.5V41.7h3.1l9.7,15.7h0.1V41.7z"/>
		<path id="XMLID_38_" d="M344.2,61h-2.6V41.7h2.6V61z"/>
		<path id="XMLID_41_" d="M363.5,61h-14.3V41.7h14.1V44h-11.5v5.9h10.6v2.3h-10.6v6.5h11.7V61z"/>
		<path id="XMLID_43_" d="M378.9,47.3c-0.1-3-2.6-3.9-4.8-3.9c-1.6,0-4.4,0.5-4.4,3.4c0,1.6,1.2,2.2,2.3,2.5l5.5,1.3
			c2.5,0.6,4.4,2.1,4.4,5.2c0,4.6-4.3,5.9-7.6,5.9c-3.6,0-5-1.1-5.9-1.9c-1.6-1.5-2-3.1-2-4.9h2.5c0,3.5,2.9,4.5,5.3,4.5
			c1.9,0,5.1-0.5,5.1-3.3c0-2-0.9-2.7-4.1-3.4l-4-0.9c-1.3-0.3-4.1-1.2-4.1-4.6c0-3,2-6,6.7-6c6.8,0,7.5,4,7.6,6.2H378.9z"/>
	</g>
	<path id="XMLID_40_" d="M199.9,93.6v78.7c1.3,0.5,2.7,0.9,4.1,1.2V87.9C202.6,89.9,201.2,91.7,199.9,93.6z M208,82.5v91.9
		c2,0.3,4,0.5,6,0.5V74.7C212,77.3,210,79.9,208,82.5z M178.3,154.3c0.2,0.4,0.5,0.9,0.8,1.3v-25.4
		C175.5,140.1,175,148.3,178.3,154.3z M192.9,104v65c0.9,0.6,1.9,1.1,2.9,1.6V99.5C194.8,101,193.8,102.5,192.9,104z M216.9,76.7
		v98.1c2.8-0.1,5.5-0.6,8.1-1.2V87.5C222.5,84,219.8,80.4,216.9,76.7z M184,119.1v43c0.9,0.9,1.9,1.8,2.9,2.7v-51.1
		C185.9,115.5,184.9,117.3,184,119.1z M227,90.2v82.9c3.6-1.1,7-2.6,10-4.4v-63.9C234,100.1,230.7,95.3,227,90.2z M239.1,108.1v59.2
		c5.1-3.5,9.3-8,12-13C256.6,144.3,251.6,128.5,239.1,108.1z"/>
</g>
</svg>
